<svg xmlns="http://www.w3.org/2000/svg" version="1.1" xmlns:xlink="http://www.w3.org/1999/xlink" xmlns:svgjs="http://svgjs.dev/svgjs" width="1500" height="1500" viewBox="0 0 1500 1500"><rect width="1500" height="1500" fill="#000000"></rect><g transform="matrix(0.6666666666666666,0,0,0.6666666666666666,249.39393939393932,574.1836434650116)"><svg viewBox="0 0 396 139" data-background-color="#1c1e21" preserveAspectRatio="xMidYMid meet" height="526" width="1500" xmlns="http://www.w3.org/2000/svg" xmlns:xlink="http://www.w3.org/1999/xlink"><g id="tight-bounds" transform="matrix(1,0,0,1,0.24000000000003752,0.1914645200476741)"><svg viewBox="0 0 395.5199999999999 138.61707095990468" height="138.61707095990468" width="395.5199999999999"><g><svg viewBox="0 0 697.4428967350218 244.43135999999998" height="138.61707095990468" width="395.5199999999999"><g transform="matrix(1,0,0,1,0,0.4507891703056828)"><svg viewBox="0 0 395.52 243.52978165938862" height="243.52978165938862" width="395.52"><g id="textblocktransform"><svg viewBox="0 0 395.52 243.52978165938862" height="243.52978165938862" width="395.52" id="textblock"><g><svg viewBox="0 0 395.52 243.52978165938862" height="243.52978165938862" width="395.52"><g transform="matrix(1,0,0,1,0,0)"><svg width="395.52" viewBox="2.2 -34.75 57.25 35.25" height="243.52978165938862" data-palette-color="#ffffff"><path d="M2.2 0L6.7-34.2 9.6-34.2 7.6-19.2 25.5-19.2 27.5-34.2 30.4-34.2 25.9 0 23 0 25.15-16.4 7.25-16.4 5.1 0 2.2 0ZM54.65-17.8Q56.6-16.5 57.7-14.63 58.8-12.75 58.8-10.4L58.8-10.4Q58.8-7 56.8-4.17 54.8-1.35 51.15-0.15L51.15-0.15Q48.85 0.5 45.4 0.5L45.4 0.5Q40.2 0.5 38.1 0.25L38.1 0.25 35.55-0.05 40.1-34.75 50.7-34.75Q52.85-34.75 54.55-34.05L54.55-34.05Q56.9-33.15 58.17-31.3 59.45-29.45 59.45-26.95L59.45-26.95Q59.45-24.25 58.35-22.13 57.25-20 54.95-18.9L54.95-18.9 53.3-18.35Q54.4-18.1 54.65-17.8L54.65-17.8ZM51.15-31.95L42.65-31.95 41-19.5 48.65-19.5Q52.05-19.5 54.32-21.53 56.6-23.55 56.6-27.15L56.6-27.15Q56.6-29.35 55.2-30.55 53.8-31.75 51.15-31.95L51.15-31.95ZM45.95-2.25Q50.1-2.25 52.72-4.1 55.35-5.95 55.85-9.4L55.85-9.4Q55.95-10.2 55.95-10.55L55.95-10.55Q55.95-13.35 54.1-15.05 52.25-16.75 48.75-16.75L48.75-16.75 40.65-16.75 38.75-2.5 42.8-2.35 45.95-2.25Z" opacity="1" transform="matrix(1,0,0,1,0,0)" fill="#ffffff" class="wordmark-text-0" data-fill-palette-color="primary" id="text-0"></path></svg></g></svg></g></svg></g></svg></g><g transform="matrix(1,0,0,1,453.0115367350218,0)"><svg viewBox="0 0 244.43135999999998 244.43135999999998" height="244.43135999999998" width="244.43135999999998"><g data-palette-color="#b90000"><rect width="66.8112384" height="244.43135999999998" fill="#ffffff" stroke="transparent" data-fill-palette-color="accent" x="0" fill-opacity="1"></rect><rect width="66.8112384" height="244.43135999999998" fill="#ffffff" stroke="transparent" data-fill-palette-color="accent" x="81.47711999999999" fill-opacity="0.75"></rect><rect width="66.8112384" height="244.43135999999998" fill="#ffffff" stroke="transparent" data-fill-palette-color="accent" x="162.95423999999997" fill-opacity="0.5"></rect></g></svg></g></svg></g><defs></defs></svg><rect width="395.5199999999999" height="138.61707095990468" fill="none" stroke="none" visibility="hidden"></rect></g></svg></g></svg>